<svg xmlns="http://www.w3.org/2000/svg" viewBox="0 0 16 16">
  <polygon points="0 5 0 11 3.37 11 9 16 9 11.06 2.93 5 0 5"/>
  <path d="M16,8c0-2.36-1.03-4.48-2.66-5.94l-.71.71c1.45,1.28,2.37,3.15,2.37,5.24,0,1.75-.66,3.34-1.72,4.57l-.71-.71c.89-1.04,1.43-2.39,1.43-3.86,0-1.81-.81-3.43-2.08-4.53l-.72.72c1.09.92,1.8,2.28,1.8,3.81,0,1.2-.44,2.29-1.15,3.15l-.71-.71c.53-.67.86-1.51.86-2.44,0-1.26-.59-2.37-1.51-3.1l-.71.71c.73.55,1.21,1.41,1.21,2.39,0,.65-.22,1.23-.57,1.72l-1.43-1.43V0l-4.39,3.9L.7,0,0,.71l3.86,3.86h0s5.14,5.14,5.14,5.14h0s6.29,6.29,6.29,6.29l.71-.71-2.01-2.01c1.25-1.41,2.01-3.25,2.01-5.28Z"/>
</svg>