<svg xmlns="http://www.w3.org/2000/svg" viewBox="0 0 16 16">
  <path d="M0,2v12h16V2H0ZM6.46,11.27c-.43.39-.96.59-1.58.59-.54,0-1.01-.13-1.39-.4-.39-.27-.7-.69-.95-1.28-.25-.59-.37-1.28-.37-2.08s.12-1.46.37-2c.25-.55.58-.96,1-1.24.42-.28.89-.42,1.41-.42.57,0,1.05.18,1.46.53.41.35.69.87.86,1.55l-.76.22c-.26-.99-.78-1.49-1.57-1.49-.39,0-.73.1-1.02.3-.29.2-.52.51-.69.94-.17.42-.26.96-.26,1.61,0,.98.17,1.72.52,2.21s.8.74,1.38.74c.42,0,.79-.15,1.1-.45.31-.3.51-.76.62-1.37l.78.24c-.17.8-.47,1.4-.91,1.8ZM12.98,11.27c-.43.39-.96.59-1.58.59-.54,0-1.01-.13-1.39-.4-.39-.27-.7-.69-.95-1.28-.25-.59-.37-1.28-.37-2.08s.12-1.46.37-2c.25-.55.58-.96,1-1.24.42-.28.89-.42,1.41-.42.57,0,1.05.18,1.46.53.41.35.69.87.86,1.55l-.76.22c-.26-.99-.78-1.49-1.57-1.49-.39,0-.73.1-1.02.3-.29.2-.52.51-.69.94-.17.42-.26.96-.26,1.61,0,.98.17,1.72.52,2.21s.8.74,1.38.74c.42,0,.79-.15,1.1-.45.31-.3.51-.76.62-1.37l.78.24c-.17.8-.47,1.4-.91,1.8Z"/>
</svg>