<svg viewBox="0 0 16 16" xmlns="http://www.w3.org/2000/svg">
  <path d="M0,2v12h16V2H0ZM6.5,11.3c-.4.4-1,.6-1.6.6s-1-.1-1.4-.4-.7-.7-.9-1.3c-.2-.6-.4-1.3-.4-2.1s.1-1.5.4-2c.2-.5.6-1,1-1.2s.9-.4,1.4-.4,1.1.2,1.5.5.7.9.9,1.6l-.8.2c-.3-1-.8-1.5-1.6-1.5s-.7.1-1,.3-.5.5-.7.9c-.2.4-.3,1-.3,1.6,0,1,.2,1.7.5,2.2.3.5.8.7,1.4.7s.8-.2,1.1-.5c.3-.3.5-.8.6-1.4l.8.2c-.2.8-.5,1.4-.9,1.8ZM13,11.3c-.4.4-1,.6-1.6.6s-1-.1-1.4-.4-.7-.7-.9-1.3c-.2-.6-.4-1.3-.4-2.1s.1-1.5.4-2c.2-.5.6-1,1-1.2s.9-.4,1.4-.4,1.1.2,1.5.5.7.9.9,1.6l-.8.2c-.3-1-.8-1.5-1.6-1.5s-.7.1-1,.3-.5.5-.7.9c-.2.4-.3,1-.3,1.6,0,1,.2,1.7.5,2.2.3.5.8.7,1.4.7s.8-.2,1.1-.5c.3-.3.5-.8.6-1.4l.8.2c-.2.8-.5,1.4-.9,1.8Z"/>
</svg>