<svg viewBox="0 0 16 16" xmlns="http://www.w3.org/2000/svg">
  <polygon points="0 5 0 11 3.4 11 9 16 9 11.1 2.9 5 0 5"/>
  <path d="M12,11.5l-.6-.8c1-.8,1.4-1.7,1.4-2.6,0-1.6-1.4-2.8-1.4-2.8l.6-.8c0,0,1.8,1.5,1.8,3.6,0,1.2-.6,2.4-1.8,3.4Z"/>
  <path d="M10.6,10l-.7-.7c.4-.4.6-.8.6-1.2,0-.7-.6-1.3-.6-1.3l.7-.7s.9.9.9,2c0,.7-.3,1.3-.9,1.9Z"/>
  <path d="M13.2,13.2l-.6-.8c1.6-1.3,2.5-2.7,2.5-4.2,0-2.6-2.5-4.6-2.5-4.6l.6-.8c.1,0,2.8,2.3,2.8,5.4s-1,3.5-2.8,5Z"/>
  <rect x="7.5" y="-2.8" width="1" height="21.6" transform="translate(-3.3 8) rotate(-45)"/>
  <polygon points="9 0 3.9 4.6 9 9.7 9 0"/>
</svg>