<svg viewBox="0 0 16 16" xmlns="http://www.w3.org/2000/svg">
  <path d="M11.01,8c0,1.66-1.35,3.01-3.01,3.01s-3.01-1.35-3.01-3.01,1.35-3.01,3.01-3.01,3.01,1.35,3.01,3.01M13.65,6.06c-.09-.24-.15-.49-.26-.71l1.33-1.94-2.12-2.12-1.94,1.33c-.23-.11-.47-.18-.71-.26L9.5,0h-3l-.44,2.35c-.24.09-.49.15-.71.26l-1.94-1.33L1.28,3.4l1.33,1.94c-.11.23-.18.47-.26.71L0,6.5v3l2.34.44c.09.24.15.5.27.72l-1.32,1.93,2.12,2.12,1.96-1.34c.23.11.46.22.7.3l.43,2.32h3l.44-2.35c.24-.09.49-.15.71-.26l1.94,1.33,2.12-2.12-1.33-1.94c.11-.23.18-.47.26-.71l2.35-.44v-3l-2.35-.44Z"/>
</svg>